<?xml version="1.0" encoding="utf-8"?>
<!-- Generator: Adobe Illustrator 16.0.0, SVG Export Plug-In . SVG Version: 6.00 Build 0)  -->
<!DOCTYPE svg PUBLIC "-//W3C//DTD SVG 1.1//EN" "http://www.w3.org/Graphics/SVG/1.1/DTD/svg11.dtd">
<svg version="1.1" id="Layer_1" xmlns="http://www.w3.org/2000/svg" xmlns:xlink="http://www.w3.org/1999/xlink" x="0px" y="0px"
	 width="117.1px" height="79.601px" viewBox="5.9 256.3 117.1 79.601" enable-background="new 5.9 256.3 117.1 79.601"
	 xml:space="preserve">
<g>
	<path fill="#F6871F" d="M67.9,282.6l-9.9-10c0-3.5,2.8-6.3,6.3-6.3s6.3,2.8,6.3,6.3l9.9,10c0,9-7.3,16.2-16.3,16.2
		S48,291.5,48,282.5v-7.6l7.6,7.6c0,4.8,3.8,8.6,8.6,8.7c4.8,0,8.6-3.8,8.7-8.6l-9.9-10c0-0.7,0.6-1.3,1.3-1.3
		c0.7,0,1.3,0.6,1.3,1.3l9.9,10c0,6.2-5.1,11.2-11.3,11.2c-6.2,0-11.2-5.1-11.2-11.3l-2.3-2.3v2.3c0,7.5,6,13.6,13.6,13.6
		c7.5,0,13.6-6,13.6-13.5l-9.9-10c0-2-1.6-3.7-3.6-3.7s-3.7,1.6-3.7,3.6l9.9,10c0,3.5-2.8,6.3-6.3,6.3S58,286,58,282.5l-9.9-10
		c0-9,7.3-16.2,16.3-16.2s16.2,7.3,16.2,16.3v7.6l-7.6-7.6c0-4.8-3.8-8.6-8.6-8.7c-4.8,0-8.6,3.8-8.7,8.6l9.9,10
		c0,0.7-0.6,1.3-1.3,1.3c-0.7,0-1.3-0.6-1.3-1.3l-9.9-10c0-6.2,5.1-11.2,11.3-11.2c6.2,0,11.2,5.1,11.2,11.3l2.3,2.3v-2.3
		c0-7.5-6-13.6-13.6-13.6c-7.5,0-13.6,6-13.6,13.5l9.9,10c0,2,1.6,3.7,3.6,3.7C66.2,286.3,67.9,284.6,67.9,282.6"/>
	<path fill="#5C4846" d="M6,318.7c0.7-0.1,1.2-0.2,1.4-0.399c0.2-0.2,0.3-0.7,0.3-1.4v-7.8c0-0.7-0.1-1.101-0.3-1.3
		c-0.2-0.2-0.6-0.301-1.3-0.4v-0.3h5.1v0.3c-0.7,0-1.2,0.1-1.4,0.3c-0.2,0.2-0.3,0.601-0.3,1.3v3.7c1.1-0.899,2-1.7,2.7-2.399
		c1.3-1.2,1.9-2,1.9-2.301c0-0.199-0.1-0.399-0.3-0.5c-0.2-0.1-0.5-0.1-0.9-0.1v-0.3h4.7v0.3c-0.6,0.1-1,0.2-1.4,0.3
		c-0.3,0.2-0.8,0.5-1.4,1.101L11.3,312l4.3,4.601c0.8,0.8,1.3,1.399,1.6,1.6c0.3,0.2,0.7,0.3,1.2,0.4v0.3h-5.5v-0.3
		c0.5,0,0.8-0.101,1-0.101c0.2-0.1,0.3-0.199,0.3-0.399c0-0.101-0.1-0.3-0.2-0.5c-0.1-0.2-0.3-0.4-0.5-0.7l-3.5-3.8l-0.6,0.5v3.3
		c0,0.7,0.1,1.1,0.3,1.3c0.2,0.2,0.6,0.3,1.3,0.4v0.3H5.9L6,318.7z"/>
	<path fill="#5C4846" d="M18.9,318.8c0.6,0,1-0.101,1.2-0.301c0.2-0.1,0.3-0.5,0.3-1.1v-6.6c0-0.5-0.1-0.9-0.3-1.101
		c-0.2-0.2-0.6-0.3-1.2-0.3v-0.3h4.4v0.3c-0.6,0-1,0.1-1.2,0.3c-0.2,0.2-0.3,0.5-0.3,1.101v6.6c0,0.6,0.1,0.9,0.3,1.1
		c0.2,0.101,0.6,0.2,1.2,0.301v0.3h-4.4V318.8z"/>
	<path fill="#5C4846" d="M30.9,309.3c0.6,0.199,0.9,0.199,1,0.199c0.2,0,0.4,0,0.5-0.1s0.2-0.2,0.2-0.4h0.3L33,312.1h-0.3
		c-0.3-0.7-0.6-1.3-0.9-1.601c-0.6-0.6-1.4-0.899-2.3-0.899c-1,0-1.8,0.399-2.5,1.1c-0.7,0.701-1.1,1.9-1.1,3.601
		c0,1.399,0.4,2.5,1.1,3.199c0.7,0.801,1.6,1.2,2.7,1.2c0.2,0,0.4,0,0.6,0c0.2,0,0.5-0.1,0.7-0.2c0.4-0.1,0.6-0.199,0.7-0.3
		c0.1-0.1,0.1-0.2,0.1-0.399v-2.4c0-0.6-0.1-0.9-0.2-1.1c-0.2-0.101-0.5-0.2-1.1-0.301v-0.3h3.8v0.3c-0.4,0-0.6,0.101-0.7,0.2
		c-0.2,0.2-0.3,0.5-0.3,1v2.9c0,0.2-0.4,0.399-1.3,0.7c-0.9,0.3-1.7,0.399-2.5,0.399c-1.5,0-2.7-0.399-3.7-1.3
		c-1.1-0.9-1.6-2.2-1.6-3.8c0-1.4,0.4-2.601,1.3-3.601c1-1.1,2.3-1.6,3.9-1.6C29.8,309.1,30.3,309.1,30.9,309.3z"/>
	<path fill="#5C4846" d="M34.6,319.1v-0.3c0.4,0,0.7-0.2,0.9-0.4c0.2-0.2,0.5-0.9,1-2l3.1-7.3h0.3l3.7,8.5c0.2,0.6,0.4,0.899,0.6,1
		c0.1,0.1,0.4,0.2,0.7,0.3v0.3h-3.8v-0.3c0.4,0,0.7-0.1,0.8-0.1c0.1-0.101,0.2-0.2,0.2-0.4c0-0.1,0-0.2-0.1-0.4
		c0-0.199-0.1-0.399-0.2-0.6l-0.6-1.4h-3.9c-0.4,1-0.6,1.601-0.7,1.801c-0.1,0.199-0.1,0.399-0.1,0.5c0,0.3,0.1,0.399,0.3,0.5
		c0.1,0.1,0.4,0.1,0.7,0.1v0.3L34.6,319.1z M41.1,315.3l-1.7-4.101l-1.7,4.101H41.1z"/>
	<path fill="#5C4846" d="M45.4,318.9c0.5-0.1,0.9-0.2,1.1-0.3c0.2-0.101,0.2-0.5,0.2-1V311c0-0.5-0.1-0.899-0.2-1
		c-0.1-0.1-0.5-0.3-1.1-0.3v-0.3h4.2v0.3c-0.5,0-0.9,0.101-1.1,0.3c-0.2,0.101-0.3,0.5-0.3,1v7.2c0,0.2,0,0.3,0.1,0.4
		c0.1,0.1,0.2,0.2,0.4,0.2c0.1,0,0.2,0,0.4,0c0.1,0,0.4,0,0.7,0c1.3,0,2.2-0.101,2.7-0.301c0.5-0.199,0.9-0.8,1.4-1.699h0.4
		l-0.7,2.6h-8L45.4,318.9z"/>
	<path fill="#5C4846" d="M54.6,318.9c0.6,0,1-0.1,1.2-0.3c0.2-0.101,0.3-0.5,0.3-1.101v-6.6c0-0.5-0.1-0.9-0.3-1.1
		c-0.2-0.2-0.6-0.301-1.2-0.301v-0.3H59v0.3c-0.6,0-1,0.101-1.2,0.301c-0.2,0.199-0.3,0.5-0.3,1.1v6.6c0,0.601,0.1,0.9,0.3,1.101
		c0.2,0.1,0.6,0.2,1.2,0.3v0.3h-4.4V318.9z"/>
	<path fill="#5C4846" d="M64.6,315.6c0.3,0.8,0.7,1.5,1.1,1.899c0.7,0.801,1.6,1.301,2.7,1.301c0.6,0,1.1-0.2,1.5-0.5
		c0.4-0.4,0.6-0.9,0.6-1.5c0-0.601-0.2-1.101-0.6-1.5c-0.3-0.301-0.9-0.7-1.7-1.2l-1.5-1c-0.5-0.3-0.8-0.601-1.1-0.9
		c-0.5-0.6-0.8-1.2-0.8-1.899c0-0.9,0.3-1.7,0.9-2.301c0.6-0.6,1.4-0.899,2.4-0.899c0.4,0,0.9,0.1,1.5,0.3c0.6,0.2,0.9,0.3,1,0.3
		c0.2,0,0.4-0.1,0.5-0.2s0.2-0.3,0.2-0.399h0.4l0.4,3.8h-0.4c-0.3-1.2-0.8-2-1.4-2.4c-0.6-0.5-1.3-0.699-1.9-0.699
		c-0.5,0-0.9,0.1-1.3,0.399c-0.4,0.299-0.6,0.7-0.6,1.2s0.1,0.9,0.4,1.2c0.3,0.3,0.7,0.7,1.3,1.1l1.6,1c1,0.601,1.7,1.2,2.1,1.7
		s0.6,1.1,0.6,1.8c0,0.9-0.4,1.7-1.1,2.4c-0.7,0.6-1.6,0.899-2.7,0.899c-0.6,0-1.1-0.1-1.7-0.3c-0.6-0.2-1-0.3-1-0.3
		c-0.2,0-0.4,0.1-0.4,0.2c-0.1,0.1-0.1,0.3-0.1,0.399h-0.4l-0.5-3.8V315.6z"/>
	<path fill="#5C4846" d="M73.6,319c0.5-0.1,0.9-0.199,1.1-0.3c0.2-0.1,0.2-0.5,0.2-1v-6.6c0-0.5-0.1-0.9-0.2-1
		c-0.2-0.2-0.5-0.3-1.1-0.3v-0.3h7.9v2.101h-0.4c-0.1-0.7-0.3-1.101-0.6-1.3c-0.3-0.2-0.8-0.301-1.7-0.301h-2
		c-0.2,0-0.4,0-0.4,0.101c-0.1,0.1-0.1,0.2-0.1,0.399v3.301h2.3c0.6,0,1-0.101,1.2-0.301c0.2-0.199,0.3-0.6,0.4-1.1h0.4v3.4h-0.4
		c-0.1-0.601-0.3-1-0.4-1.101c-0.2-0.2-0.6-0.3-1.2-0.3h-2.3v3.7c0,0.3,0.1,0.5,0.3,0.5c0.2,0.1,0.7,0.1,1.7,0.1s1.8-0.1,2.2-0.3
		c0.5-0.2,0.9-0.8,1.3-1.6h0.4l-0.7,2.5h-8.1L73.6,319z"/>
	<path fill="#5C4846" d="M82.8,319c0.6-0.1,0.9-0.199,1.1-0.3c0.1-0.2,0.2-0.6,0.2-1.2V311c0-0.5-0.1-0.899-0.2-1
		c-0.2-0.199-0.5-0.3-1-0.3v-0.3H87c0.9,0,1.6,0.1,2.1,0.3c1.1,0.4,1.6,1.2,1.6,2.3c0,0.7-0.2,1.301-0.7,1.7c-0.5,0.4-1.1,0.7-2,0.8
		l3.1,3.801c0.2,0.199,0.4,0.399,0.6,0.5c0.2,0.1,0.4,0.199,0.7,0.199v0.301H90l-3.7-4.601h-0.7v2.9c0,0.6,0.1,0.899,0.2,1.1
		c0.2,0.101,0.5,0.2,1.1,0.3v0.301h-4.1V319z M87.9,313.9c0.8-0.3,1.2-0.9,1.2-1.8s-0.4-1.5-1.1-1.8c-0.4-0.2-0.9-0.301-1.5-0.301
		c-0.4,0-0.7,0-0.8,0.101c-0.1,0.1-0.1,0.2-0.1,0.399v3.7C86.7,314.1,87.4,314,87.9,313.9z"/>
	<path fill="#5C4846" d="M92.7,319c0.5-0.1,0.9-0.199,1.1-0.3c0.2-0.1,0.2-0.5,0.2-1v-6.6c0-0.5-0.1-0.9-0.2-1
		c-0.2-0.2-0.5-0.3-1.1-0.3v-0.3h7.9v2.101h-0.4c-0.1-0.7-0.3-1.101-0.6-1.3c-0.3-0.2-0.8-0.301-1.7-0.301h-2
		c-0.2,0-0.4,0-0.4,0.101c-0.1,0.1-0.1,0.2-0.1,0.399v3.301h2.3c0.6,0,1-0.101,1.2-0.301c0.2-0.199,0.3-0.6,0.4-1.1h0.4v3.4h-0.4
		c-0.1-0.601-0.3-1-0.4-1.101c-0.2-0.2-0.6-0.3-1.2-0.3h-2.3v3.7c0,0.3,0.1,0.5,0.3,0.5c0.2,0.1,0.7,0.1,1.7,0.1s1.8-0.1,2.2-0.3
		c0.5-0.2,0.9-0.8,1.3-1.6h0.4l-0.7,2.5h-8.1L92.7,319z"/>
	<path fill="#5C4846" d="M101.8,319.1c0.6-0.101,1-0.2,1.2-0.4c0.2-0.2,0.3-0.7,0.3-1.5v-6.6l-0.2-0.2c-0.2-0.3-0.4-0.4-0.6-0.5
		s-0.4-0.1-0.7-0.1v-0.3h2.5l5.7,7.2v-5c0-0.8-0.1-1.3-0.4-1.6c-0.2-0.2-0.5-0.3-1.1-0.3v-0.3h3.5v0.301
		c-0.6,0.1-0.9,0.199-1.1,0.399c-0.2,0.2-0.3,0.7-0.3,1.5v7.9h-0.3l-6.6-8.2v5.8c0,0.8,0.1,1.3,0.4,1.601c0.2,0.199,0.5,0.3,1,0.3
		v0.3h-3.5L101.8,319.1z"/>
	<path fill="#5C4846" d="M112.7,319.4v-0.3c0.4,0,0.7-0.2,0.9-0.4c0.2-0.2,0.5-0.899,1-2l3.1-7.3h0.3l3.7,8.5c0.2,0.6,0.4,0.9,0.6,1
		c0.2,0.1,0.4,0.2,0.7,0.3v0.3h-3.8v-0.3c0.4,0,0.7-0.1,0.8-0.1c0.1-0.101,0.2-0.2,0.2-0.4c0-0.1,0-0.2-0.1-0.399
		c0-0.2-0.1-0.4-0.2-0.601l-0.6-1.399h-3.9c-0.4,1-0.6,1.6-0.7,1.8c-0.1,0.2-0.1,0.399-0.1,0.5c0,0.3,0.1,0.399,0.3,0.5
		c0.1,0.1,0.4,0.1,0.7,0.1v0.3L112.7,319.4z M119.1,315.6l-1.7-4.101l-1.7,4.101H119.1z"/>
	<path fill="#5C4846" d="M48,335.5c0.4,0,0.6-0.1,0.7-0.199c0.1-0.101,0.1-0.4,0.1-0.801v-4.2c0-0.301-0.1-0.601-0.2-0.7
		c-0.1-0.101-0.3-0.2-0.7-0.2v-0.2h2.7v0.2c-0.4,0-0.6,0.1-0.7,0.2s-0.2,0.3-0.2,0.7v1.899h3V330.3c0-0.301-0.1-0.601-0.2-0.7
		c-0.1-0.101-0.3-0.2-0.7-0.2v-0.2h2.7v0.2c-0.4,0-0.6,0.1-0.7,0.2c-0.1,0.1-0.2,0.3-0.2,0.7v4.3c0,0.399,0.1,0.6,0.2,0.7
		c0.1,0.1,0.3,0.199,0.7,0.199v0.2h-2.7v-0.2c0.4,0,0.6-0.1,0.7-0.199c0.1-0.101,0.1-0.4,0.1-0.801V332.6h-3v2
		c0,0.399,0.1,0.6,0.2,0.7c0.1,0.1,0.3,0.199,0.7,0.199v0.2h-2.7L48,335.5z"/>
	<path fill="#5C4846" d="M56.6,330c0.6-0.6,1.3-0.899,2.2-0.899c0.9,0,1.6,0.3,2.2,0.899c0.6,0.601,1,1.5,1,2.5
		c0,1.101-0.3,1.9-1,2.5c-0.6,0.601-1.3,0.801-2.2,0.801c-0.9,0-1.7-0.301-2.3-0.9s-0.9-1.4-0.9-2.4S55.9,330.7,56.6,330z
		 M57.3,334.8c0.4,0.5,0.9,0.699,1.5,0.699c0.6,0,1.1-0.199,1.5-0.699c0.4-0.5,0.6-1.2,0.6-2.301c0-1.1-0.2-1.8-0.6-2.3
		c-0.4-0.5-0.9-0.7-1.5-0.7c-0.6,0-1.1,0.2-1.5,0.7c-0.4,0.5-0.6,1.2-0.6,2.3C56.7,333.6,56.9,334.3,57.3,334.8z"/>
	<path fill="#5C4846" d="M62.9,329.3h5.5v1.7h-0.2c-0.1-0.5-0.3-0.899-0.4-1c-0.2-0.199-0.5-0.199-1.1-0.199h-0.5v5
		c0,0.399,0.1,0.6,0.2,0.699c0.1,0.101,0.4,0.101,0.8,0.2v0.2h-2.8v-0.2c0.4,0,0.7-0.1,0.8-0.2c0.1-0.1,0.2-0.399,0.2-0.8v-4.9h-0.5
		c-0.5,0-0.9,0.1-1.1,0.199c-0.2,0.2-0.3,0.5-0.4,1h-0.2L62.9,329.3z"/>
	<path fill="#5C4846" d="M69.1,335.6c0.4,0,0.6-0.101,0.7-0.2c0.1-0.1,0.2-0.3,0.2-0.7v-4.3c0-0.3-0.1-0.6-0.2-0.7
		c-0.1-0.1-0.3-0.2-0.7-0.2v-0.2h5.2v1.399h-0.2c-0.1-0.399-0.2-0.7-0.4-0.8c-0.2-0.1-0.5-0.2-1.1-0.2h-1.3c-0.1,0-0.2,0-0.3,0.101
		c0,0-0.1,0.1-0.1,0.3v2.2h1.5c0.4,0,0.7-0.101,0.8-0.2c0.1-0.101,0.2-0.4,0.3-0.7h0.2v2.2h-0.2c-0.1-0.4-0.2-0.601-0.3-0.7
		c-0.1-0.1-0.4-0.2-0.8-0.2h-1.5v2.4c0,0.2,0.1,0.3,0.2,0.3s0.5,0.1,1.1,0.1c0.7,0,1.1-0.1,1.5-0.199c0.3-0.101,0.6-0.5,0.8-1h0.3
		l-0.4,1.6h-5.3V335.6L69.1,335.6z"/>
	<path fill="#5C4846" d="M75.5,335.6c0.4,0,0.6-0.101,0.7-0.2c0.1-0.1,0.2-0.3,0.2-0.7v-4.3c0-0.3-0.1-0.6-0.2-0.7
		c-0.1-0.1-0.3-0.2-0.7-0.2v-0.2h2.7v0.199c-0.4,0-0.6,0.101-0.7,0.2c-0.1,0.101-0.2,0.3-0.2,0.601v4.7c0,0.101,0,0.2,0.1,0.301
		c0,0.1,0.1,0.1,0.2,0.1s0.1,0,0.2,0c0.1,0,0.2,0,0.5,0c0.9,0,1.5-0.1,1.8-0.2c0.3-0.1,0.6-0.5,0.9-1.1h0.2l-0.5,1.7h-5.2V335.6z"/>
</g>
</svg>
